<svg width="66" height="66" viewBox="0 0 66 66" fill="none" xmlns="http://www.w3.org/2000/svg">
<path d="M25.8092 38.5704C27.4292 38.1604 28.9592 37.5204 30.3492 36.6804L32.6292 38.2104L37.7692 33.0704L36.2392 30.7904C37.0792 29.3904 37.7192 27.8704 38.1292 26.2504L40.8192 25.7204V18.4504L38.1292 17.9104C37.7192 16.2904 37.0792 14.7604 36.2392 13.3704L37.7692 11.0904L32.6292 5.95039L30.3492 7.48039C28.9492 6.64039 27.4192 6.00039 25.8092 5.59039L25.2792 2.90039H17.9992L17.4692 5.59039C15.8492 6.00039 14.3192 6.64039 12.9292 7.48039L10.6492 5.95039L5.49922 11.0804L7.02922 13.3604C6.18922 14.7604 5.54922 16.2904 5.13922 17.9004L2.44922 18.4404V25.7104L5.13922 26.2404C5.54922 27.8704 6.18922 29.3904 7.02922 30.7804L5.49922 33.0604L10.6392 38.2004L12.9192 36.6704C14.3192 37.5104 15.8492 38.1504 17.4592 38.5604L17.9992 41.2504H25.2792L25.8092 38.5704ZM9.58922 22.0804C9.58922 15.4204 14.9792 10.0304 21.6292 10.0304C28.2892 10.0304 33.6792 15.4204 33.6792 22.0804C33.6792 28.7304 28.2892 34.1204 21.6292 34.1204C14.9792 34.1204 9.58922 28.7304 9.58922 22.0804ZM63.1092 27.4904L59.0992 31.5004L55.1492 29.6304L53.2792 25.6804L57.2992 21.6604C55.723 21.1531 54.0373 21.0911 52.428 21.481C50.8187 21.871 49.3484 22.6979 48.1792 23.8704C46.9888 25.0571 46.1552 26.5541 45.7734 28.1911C45.3915 29.8281 45.4767 31.5394 46.0192 33.1304L33.5692 45.5804C31.9782 45.0379 30.2669 44.9527 28.6299 45.3346C26.993 45.7164 25.496 46.5499 24.3092 47.7404C23.1393 48.9113 22.3142 50.3816 21.9244 51.9903C21.5345 53.5989 21.595 55.2838 22.0992 56.8604L26.1192 52.8404L30.0692 54.7104L31.9392 58.6604L27.9192 62.6804C31.0292 63.6804 34.5792 62.9404 37.0392 60.4704C39.4392 58.0704 40.1992 54.6604 39.3292 51.6204L52.0592 38.9004C55.0992 39.7704 58.5092 39.0104 60.9092 36.6104C62.08 35.4401 62.905 33.9694 63.2932 32.3601C63.6814 30.7509 63.6177 29.0657 63.1092 27.4904Z" fill="#C53A49"/>
<path d="M25.9593 14.1699H20.6893L16.5293 22.9399H19.5293L17.8693 30.4599L26.6093 20.3499H23.2993L25.9593 14.1699Z" fill="#C53A49"/>
</svg>
