<svg width="55" height="55" viewBox="0 0 55 55" fill="none" xmlns="http://www.w3.org/2000/svg">
<path d="M54.0834 44H43.0834V38.5H54.0834C54.2038 38.5001 54.323 38.4765 54.4343 38.4305C54.5455 38.3844 54.6466 38.3169 54.7318 38.2318C54.8169 38.1466 54.8844 38.0455 54.9305 37.9343C54.9765 37.823 55.0001 37.7038 55 37.5834C55 37.463 54.9764 37.3438 54.9303 37.2325C54.8843 37.1213 54.8167 37.0202 54.7316 36.9351C54.6465 36.85 54.5454 36.7825 54.4342 36.7364C54.323 36.6904 54.2038 36.6667 54.0834 36.6667H43.0834V36.3468C43.0834 34.5015 41.5818 33.0001 39.7375 33.0001H33.9166V28.403C34.4175 28.1927 34.9035 27.9486 35.3713 27.6724L34.8672 27.006C34.8482 26.9809 34.8305 26.9549 34.814 26.9281C33.637 24.9912 31.5883 23.8334 29.3333 23.8334C27.0783 23.8334 25.0295 24.9912 23.8525 26.9281L23.3318 27.6953C23.7884 27.9627 24.2621 28.1997 24.7499 28.4048V33H18.929C17.0847 33 15.5832 34.5015 15.5832 36.3467V36.8215C11.9715 36.3686 9.16652 33.2841 9.16652 29.5524V6.41663C9.16652 5.91067 8.75682 5.5 8.24989 5.5C7.74297 5.5 7.33326 5.91067 7.33326 6.41663V29.5524C7.33326 34.2971 10.9578 38.2121 15.5833 38.6733V43.9725C7.92172 43.5041 1.83326 37.2158 1.83326 29.5524V6.41663C1.83326 5.91067 1.42355 5.5 0.916631 5.5C0.409707 5.5 0 5.91067 0 6.41663V29.5524C0 38.225 6.9126 45.3145 15.5834 45.7875V46.1541C15.5834 47.9994 17.0849 49.5 18.9292 49.5H39.7375C41.5818 49.5 43.0834 47.9994 43.0834 46.1541V45.8333H54.0834C54.2038 45.8334 54.323 45.8097 54.4343 45.7637C54.5455 45.7177 54.6466 45.6502 54.7318 45.565C54.8169 45.4799 54.8844 45.3788 54.9305 45.2675C54.9765 45.1563 55.0001 45.037 55 44.9166C55 44.7962 54.9764 44.677 54.9303 44.5658C54.8843 44.4546 54.8167 44.3535 54.7316 44.2684C54.6465 44.1833 54.5454 44.1157 54.4342 44.0697C54.323 44.0236 54.2038 44 54.0834 44ZM26.5834 29.0052C26.5999 29.0088 26.6173 29.0107 26.6338 29.0143C27.0499 29.1124 27.4735 29.1894 27.9061 29.2426C27.9491 29.2481 27.9922 29.2509 28.0353 29.2555C28.4625 29.3032 28.8942 29.3334 29.3333 29.3334C29.7714 29.3334 30.2013 29.3031 30.6267 29.2563C30.6726 29.2509 30.7184 29.2472 30.7652 29.2416C31.1911 29.1895 31.6137 29.1136 32.0311 29.0143C32.0485 29.0107 32.0659 29.0088 32.0833 29.0052V33H26.5833L26.5834 29.0052ZM39.4166 42.4875C39.4166 44.3328 37.9151 45.8334 36.0708 45.8334H22.5958C20.7514 45.8334 19.2499 44.3328 19.2499 42.4875V40.0135C19.2499 38.1682 20.7514 36.6667 22.5958 36.6667H36.0708C37.9151 36.6667 39.4166 38.1683 39.4166 40.0135V42.4875Z" fill="#C53A49"/>
<path d="M21.8225 26.6575L22.3102 25.9379C23.797 23.4867 26.4315 21.9999 29.3328 21.9999C32.2175 21.9999 34.8401 23.4703 36.3554 25.9352L36.8806 26.6291C39.5454 24.442 41.2495 21.1245 41.2495 17.4166C41.2495 10.846 35.9035 5.5 29.3329 5.5C22.7622 5.5 17.416 10.846 17.416 17.4166C17.416 21.1419 19.1366 24.4704 21.8225 26.6575ZM36.666 16.4999C36.9091 16.5 37.1422 16.5966 37.3141 16.7685C37.486 16.9403 37.5826 17.1734 37.5826 17.4165C37.5826 17.6596 37.486 17.8927 37.3141 18.0646C37.1422 18.2365 36.9091 18.3331 36.666 18.3332C36.4229 18.3331 36.1898 18.2365 36.018 18.0646C35.8461 17.8927 35.7495 17.6596 35.7494 17.4165C35.7495 17.1734 35.8461 16.9403 36.018 16.7685C36.1898 16.5966 36.4229 16.5 36.666 16.4999ZM34.8328 11.9166C35.3387 11.9166 35.7494 12.3273 35.7494 12.8333C35.7494 13.3392 35.3387 13.7499 34.8328 13.7499C34.3268 13.7499 33.9161 13.3392 33.9161 12.8333C33.9161 12.3273 34.3267 11.9166 34.8328 11.9166ZM29.3328 9.16663C29.5758 9.16672 29.8089 9.26332 29.9808 9.4352C30.1527 9.60708 30.2493 9.84018 30.2494 10.0833C30.2493 10.3263 30.1527 10.5594 29.9808 10.7313C29.8089 10.9032 29.5758 10.9998 29.3328 10.9999C29.0897 10.9998 28.8566 10.9032 28.6847 10.7313C28.5128 10.5594 28.4162 10.3263 28.4161 10.0833C28.416 9.57731 28.8267 9.16663 29.3328 9.16663ZM25.6743 14.8646C25.7666 14.7873 25.8733 14.7291 25.9882 14.6931C26.103 14.6571 26.2239 14.6442 26.3438 14.655C26.4637 14.6658 26.5803 14.7002 26.6869 14.7561C26.7935 14.8121 26.888 14.8885 26.965 14.9811L30.0367 18.6624C30.3612 19.0511 30.308 19.6295 29.9202 19.9539C29.7557 20.0914 29.548 20.1667 29.3336 20.1666C29.1992 20.1669 29.0663 20.1376 28.9445 20.0808C28.8226 20.0239 28.7148 19.9409 28.6287 19.8376L25.5578 16.1554C25.2325 15.7666 25.2856 15.1882 25.6743 14.8646ZM23.8328 11.9166C24.3387 11.9166 24.7494 12.3273 24.7494 12.8333C24.7494 13.3392 24.3387 13.7499 23.8328 13.7499C23.3268 13.7499 22.9161 13.3392 22.9161 12.8333C22.9161 12.3273 23.3267 11.9166 23.8328 11.9166ZM21.9994 16.4999C22.2425 16.5 22.4756 16.5966 22.6474 16.7685C22.8193 16.9403 22.9159 17.1734 22.916 17.4165C22.916 17.9225 22.5053 18.3332 21.9994 18.3332C21.4934 18.3332 21.0828 17.9225 21.0828 17.4165C21.0828 17.1734 21.1794 16.9403 21.3513 16.7685C21.5232 16.5966 21.7563 16.5 21.9994 16.4999ZM36.0698 38.4999H22.5958C21.7617 38.4999 21.0823 39.1783 21.0823 40.0124V40.3333H23.8323C23.9527 40.3331 24.072 40.3568 24.1832 40.4028C24.2945 40.4488 24.3956 40.5163 24.4807 40.6015C24.5659 40.6866 24.6334 40.7877 24.6794 40.899C24.7254 41.0102 24.7491 41.1295 24.749 41.2499C24.7491 41.3703 24.7254 41.4895 24.6794 41.6008C24.6334 41.7121 24.5659 41.8132 24.4807 41.8983C24.3956 41.9834 24.2945 42.051 24.1832 42.097C24.072 42.143 23.9527 42.1666 23.8323 42.1665H21.0823V42.4874C21.0823 43.3215 21.7616 43.9999 22.5958 43.9999H36.0699C36.9041 43.9999 37.5824 43.3215 37.5824 42.4874V42.1665H34.8324C34.712 42.1666 34.5928 42.1429 34.4816 42.0968C34.3704 42.0508 34.2693 41.9833 34.1842 41.8981C34.0991 41.813 34.0315 41.712 33.9855 41.6007C33.9394 41.4895 33.9158 41.3703 33.9158 41.2499C33.9158 41.1295 33.9394 41.0103 33.9855 40.8991C34.0315 40.7878 34.0991 40.6868 34.1842 40.6016C34.2693 40.5165 34.3704 40.449 34.4816 40.403C34.5928 40.3569 34.712 40.3332 34.8324 40.3333H37.5824V40.0124C37.5823 39.1783 36.9041 38.4999 36.0698 38.4999Z" fill="#C53A49"/>
</svg>
