<svg width="63" height="63" viewBox="0 0 63 63" fill="none" xmlns="http://www.w3.org/2000/svg">
<path d="M15.75 22.5C19.4779 22.5 22.5 19.4779 22.5 15.75C22.5 12.0221 19.4779 9 15.75 9C12.0221 9 9 12.0221 9 15.75C9 19.4779 12.0221 22.5 15.75 22.5Z" fill="#C53A49"/>
<path d="M15.75 6.75C16.3467 6.75 16.919 6.51295 17.341 6.09099C17.763 5.66903 18 5.09674 18 4.5V2.25C18 1.65326 17.763 1.08097 17.341 0.65901C16.919 0.237053 16.3467 0 15.75 0C15.1533 0 14.581 0.237053 14.159 0.65901C13.7371 1.08097 13.5 1.65326 13.5 2.25V4.5C13.5 5.09674 13.7371 5.66903 14.159 6.09099C14.581 6.51295 15.1533 6.75 15.75 6.75ZM6.20326 9.387C6.41173 9.59667 6.65959 9.76305 6.93259 9.87659C7.20559 9.99013 7.49834 10.0486 7.79401 10.0486C8.08968 10.0486 8.38243 9.99013 8.65543 9.87659C8.92843 9.76305 9.17629 9.59667 9.38476 9.387C9.80657 8.96506 10.0435 8.39287 10.0435 7.79625C10.0435 7.19963 9.80657 6.62744 9.38476 6.2055L7.79401 4.61475C7.58645 4.39985 7.33818 4.22844 7.06367 4.11052C6.78916 3.9926 6.49392 3.93053 6.19516 3.92794C5.89641 3.92534 5.60013 3.98227 5.32361 4.0954C5.0471 4.20853 4.79588 4.3756 4.58462 4.58686C4.37336 4.79812 4.20629 5.04934 4.09316 5.32585C3.98003 5.60237 3.9231 5.89865 3.9257 6.1974C3.92829 6.49616 3.99036 6.7914 4.10828 7.06591C4.2262 7.34042 4.39761 7.5887 4.61251 7.79625L6.20326 9.387ZM6.75001 15.75C6.75001 15.1533 6.51296 14.581 6.091 14.159C5.66904 13.7371 5.09675 13.5 4.50001 13.5H2.25001C1.65327 13.5 1.08098 13.7371 0.659018 14.159C0.237061 14.581 8.55524e-06 15.1533 8.55524e-06 15.75C8.55524e-06 16.3467 0.237061 16.919 0.659018 17.341C1.08098 17.7629 1.65327 18 2.25001 18H4.50001C5.09675 18 5.66904 17.7629 6.091 17.341C6.51296 16.919 6.75001 16.3467 6.75001 15.75ZM6.20326 22.113L4.61251 23.7038C4.39761 23.9113 4.2262 24.1596 4.10828 24.4341C3.99036 24.7086 3.92829 25.0038 3.9257 25.3026C3.9231 25.6014 3.98003 25.8976 4.09316 26.1741C4.20629 26.4507 4.37336 26.7019 4.58462 26.9131C4.79588 27.1244 5.0471 27.2915 5.32361 27.4046C5.60013 27.5177 5.89641 27.5747 6.19516 27.5721C6.49392 27.5695 6.78916 27.5074 7.06367 27.3895C7.33818 27.2716 7.58645 27.1001 7.79401 26.8853L9.38476 25.2945C9.59966 25.0869 9.77107 24.8387 9.88899 24.5642C10.0069 24.2896 10.069 23.9944 10.0716 23.6957C10.0742 23.3969 10.0172 23.1006 9.90411 22.8241C9.79098 22.5476 9.62391 22.2964 9.41265 22.0851C9.20139 21.8739 8.95017 21.7068 8.67366 21.5937C8.39714 21.4805 8.10086 21.4236 7.80211 21.4262C7.50335 21.4288 7.20811 21.4909 6.9336 21.6088C6.65909 21.7267 6.41081 21.8981 6.20326 22.113ZM15.75 24.75C15.1533 24.75 14.581 24.9871 14.159 25.409C13.7371 25.831 13.5 26.4033 13.5 27V29.25C13.5 29.8467 13.7371 30.419 14.159 30.841C14.581 31.2629 15.1533 31.5 15.75 31.5C16.3467 31.5 16.919 31.2629 17.341 30.841C17.763 30.419 18 29.8467 18 29.25V27C18 26.4033 17.763 25.831 17.341 25.409C16.919 24.9871 16.3467 24.75 15.75 24.75ZM25.2968 22.113C25.0892 21.8981 24.8409 21.7267 24.5664 21.6088C24.2919 21.4909 23.9967 21.4288 23.6979 21.4262C23.3992 21.4236 23.1029 21.4805 22.8264 21.5937C22.5498 21.7068 22.2986 21.8739 22.0874 22.0851C21.8761 22.2964 21.709 22.5476 21.5959 22.8241C21.4828 23.1006 21.4258 23.3969 21.4284 23.6957C21.431 23.9944 21.4931 24.2896 21.611 24.5642C21.729 24.8387 21.9004 25.0869 22.1153 25.2945L23.706 26.8853C23.9145 27.0949 24.1623 27.2613 24.4353 27.3748C24.7083 27.4884 25.0011 27.5468 25.2968 27.5468C25.5924 27.5468 25.8852 27.4884 26.1582 27.3748C26.4312 27.2613 26.679 27.0949 26.8875 26.8853C27.3093 26.4633 27.5463 25.8911 27.5463 25.2945C27.5463 24.6979 27.3093 24.1257 26.8875 23.7038L25.2968 22.113ZM29.25 13.5H27C26.4033 13.5 25.831 13.7371 25.409 14.159C24.9871 14.581 24.75 15.1533 24.75 15.75C24.75 16.3467 24.9871 16.919 25.409 17.341C25.831 17.7629 26.4033 18 27 18H29.25C29.8467 18 30.419 17.7629 30.841 17.341C31.263 16.919 31.5 16.3467 31.5 15.75C31.5 15.1533 31.263 14.581 30.841 14.159C30.419 13.7371 29.8467 13.5 29.25 13.5ZM23.706 10.0463C24.0015 10.0466 24.2942 9.98847 24.5672 9.87534C24.8402 9.7622 25.0881 9.59625 25.2968 9.387L26.8875 7.79625C27.1024 7.5887 27.2738 7.34042 27.3917 7.06591C27.5097 6.7914 27.5717 6.49616 27.5743 6.1974C27.5769 5.89865 27.52 5.60237 27.4069 5.32585C27.2937 5.04934 27.1267 4.79812 26.9154 4.58686C26.7041 4.3756 26.4529 4.20853 26.1764 4.0954C25.8999 3.98227 25.6036 3.92534 25.3049 3.92794C25.0061 3.93053 24.7109 3.9926 24.4364 4.11052C24.1618 4.22844 23.9136 4.39985 23.706 4.61475L22.1153 6.2055C21.8007 6.52017 21.5865 6.92104 21.4997 7.35743C21.4129 7.79382 21.4575 8.24615 21.6277 8.65722C21.798 9.0683 22.0863 9.41966 22.4562 9.6669C22.8262 9.91414 23.2611 10.0462 23.706 10.0463ZM36 33.75H24.75C23.5565 33.75 22.4119 34.2241 21.568 35.068C20.7241 35.9119 20.25 37.0565 20.25 38.25V58.5C20.25 59.6935 20.7241 60.8381 21.568 61.682C22.4119 62.5259 23.5565 63 24.75 63H36C37.1935 63 38.3381 62.5259 39.182 61.682C40.0259 60.8381 40.5 59.6935 40.5 58.5V38.25C40.5 37.0565 40.0259 35.9119 39.182 35.068C38.3381 34.2241 37.1935 33.75 36 33.75ZM33.6308 48.879L31.3808 53.379C31.2457 53.6434 31.0117 53.8436 30.7296 53.9362C30.4475 54.0287 30.1403 54.006 29.8749 53.873C29.6095 53.74 29.4074 53.5075 29.3127 53.2261C29.218 52.9448 29.2383 52.6374 29.3693 52.371L30.8025 49.5H28.125C27.933 49.5004 27.744 49.4516 27.5762 49.3583C27.4084 49.265 27.2672 49.1303 27.1661 48.967C27.0651 48.8037 27.0075 48.6172 26.9989 48.4254C26.9903 48.2335 27.031 48.0427 27.117 47.871L29.367 43.371C29.5021 43.1066 29.7361 42.9064 30.0182 42.8138C30.3003 42.7213 30.6075 42.744 30.8729 42.877C31.1383 43.01 31.3403 43.2425 31.4351 43.5239C31.5298 43.8052 31.5094 44.1126 31.3785 44.379L29.9475 47.25H32.625C32.8169 47.25 33.0055 47.2991 33.173 47.3925C33.3406 47.486 33.4814 47.6208 33.5822 47.784C33.683 47.9472 33.7404 48.1335 33.7489 48.3252C33.7574 48.5168 33.7167 48.7075 33.6308 48.879ZM50.625 50.625H42.75V46.125H48.375V33.75H52.875V48.375C52.875 48.9717 52.638 49.544 52.216 49.966C51.794 50.3879 51.2218 50.625 50.625 50.625ZM47.25 22.5H54V31.5H47.25V22.5ZM38.25 11.25H45V20.25H38.25V11.25ZM47.25 11.25H54V20.25H47.25V11.25ZM56.25 9H63V2.25C63 1.65326 62.763 1.08097 62.341 0.65901C61.9191 0.237053 61.3468 0 60.75 0H56.25V9ZM56.25 22.5V31.5H60.75C61.3468 31.5 61.9191 31.2629 62.341 30.841C62.763 30.419 63 29.8467 63 29.25V22.5H56.25ZM47.25 0H54V9H47.25V0ZM45 9V0H40.5C39.9033 0 39.331 0.237053 38.909 0.65901C38.4871 1.08097 38.25 1.65326 38.25 2.25V9H45ZM45 22.5H38.25V29.25C38.25 29.8467 38.4871 30.419 38.909 30.841C39.331 31.2629 39.9033 31.5 40.5 31.5H45V22.5ZM56.25 11.25H63V20.25H56.25V11.25ZM18 39.375H10.7753C10.26 38.1893 9.35165 37.2175 8.20341 36.6233C7.05516 36.0292 5.7372 35.8491 4.47165 36.1134C3.2061 36.3776 2.07035 37.0701 1.25581 38.0741C0.441271 39.0781 -0.00224626 40.3322 8.55524e-06 41.625C0.00269909 42.9152 0.448827 44.1652 1.26361 45.1656C2.07838 46.1659 3.21229 46.8558 4.47523 47.1195C5.73817 47.3832 7.05339 47.2048 8.2004 46.6141C9.34741 46.0234 10.2565 45.0563 10.7753 43.875H18V39.375ZM18 52.875H10.7753C10.26 51.6893 9.35165 50.7175 8.20341 50.1233C7.05516 49.5292 5.7372 49.3491 4.47165 49.6134C3.2061 49.8776 2.07035 50.5701 1.25581 51.5741C0.441271 52.5781 -0.00224626 53.8322 8.55524e-06 55.125C0.00269909 56.4152 0.448827 57.6652 1.26361 58.6656C2.07838 59.6659 3.21229 60.3558 4.47523 60.6195C5.73817 60.8832 7.05339 60.7048 8.2004 60.1141C9.34741 59.5234 10.2565 58.5563 10.7753 57.375H18V52.875Z" fill="#C53A49"/>
</svg>
